<svg width="36" height="35" viewBox="0 0 36 35" fill="none" xmlns="http://www.w3.org/2000/svg">
<path d="M10.8679 0.369593C9.04844 0.455435 7.80596 0.745793 6.71977 1.17261C5.59561 1.61071 4.6428 2.19861 3.69477 3.15005C2.74675 4.1015 2.16296 5.05499 1.72793 6.18086C1.30693 7.26944 1.0217 8.51296 0.941333 10.3334C0.860963 12.1539 0.843179 12.739 0.852071 17.3827C0.860963 22.0264 0.881483 22.6085 0.969719 24.4327C1.05659 26.2518 1.34592 27.494 1.77273 28.5805C2.21152 29.7046 2.79873 30.6571 3.75052 31.6055C4.70231 32.5538 5.65512 33.1363 6.78372 33.572C7.87128 33.9923 9.11514 34.2789 10.9353 34.3586C12.7554 34.4383 13.3412 34.4567 17.9835 34.4478C22.6258 34.4389 23.2103 34.4184 25.0342 34.3319C26.8581 34.2454 28.0937 33.954 29.1806 33.5292C30.3048 33.0894 31.2579 32.5032 32.2056 31.5511C33.1533 30.599 33.7367 29.6448 34.1714 28.5182C34.5928 27.4307 34.879 26.1868 34.958 24.3681C35.0377 22.5428 35.0565 21.9601 35.0476 17.3171C35.0387 12.6741 35.0179 12.092 34.9314 10.2684C34.8448 8.4449 34.5551 7.20652 34.1287 6.1193C33.6892 4.99514 33.1027 4.04336 32.1512 3.09431C31.1998 2.14526 30.2449 1.56215 29.1187 1.12849C28.0305 0.707489 26.7873 0.420551 24.9672 0.341891C23.1471 0.263231 22.5612 0.243053 17.9172 0.251945C13.2732 0.260837 12.6918 0.280673 10.8679 0.369593ZM11.0676 31.2823C9.40036 31.2098 8.49509 30.9328 7.8918 30.7009C7.09289 30.3931 6.5238 30.021 5.92256 29.4256C5.32133 28.8302 4.95197 28.259 4.64006 27.4618C4.40579 26.8585 4.12364 25.9543 4.04567 24.287C3.96085 22.485 3.94307 21.944 3.93315 17.3786C3.92323 12.8133 3.94067 12.2729 4.01968 10.4702C4.09081 8.80434 4.36954 7.89804 4.60108 7.29509C4.90887 6.49516 5.2796 5.92709 5.87639 5.3262C6.47318 4.72531 7.04261 4.35526 7.8405 4.04336C8.4431 3.80806 9.34735 3.52831 11.0139 3.44896C12.8173 3.36346 13.3576 3.34636 17.9223 3.33644C22.487 3.32653 23.0287 3.34363 24.8328 3.42297C26.4987 3.49547 27.4053 3.77147 28.0076 4.00437C28.8068 4.31217 29.3756 4.68187 29.9765 5.27969C30.5773 5.8775 30.9477 6.44488 31.2596 7.24448C31.4953 7.84537 31.775 8.74928 31.8537 10.4169C31.9395 12.2202 31.959 12.7609 31.9672 17.3253C31.9754 21.8896 31.9594 22.4317 31.8804 24.2337C31.8075 25.9009 31.5312 26.8065 31.299 27.4105C30.9912 28.2091 30.6201 28.7785 30.023 29.3791C29.4258 29.9796 28.8571 30.3497 28.0589 30.6616C27.4569 30.8965 26.5517 31.177 24.8865 31.2563C23.0831 31.3411 22.5427 31.3589 17.9764 31.3688C13.41 31.3787 12.8713 31.3603 11.068 31.2823M25.0079 8.21063C25.0086 8.6165 25.1296 9.01306 25.3556 9.35015C25.5817 9.68724 25.9027 9.94971 26.2779 10.1044C26.6532 10.259 27.0659 10.299 27.4638 10.2191C27.8617 10.1392 28.227 9.94305 28.5135 9.65552C28.8 9.368 28.9948 9.00198 29.0732 8.60375C29.1516 8.20553 29.1102 7.79299 28.9542 7.41831C28.7981 7.04362 28.5345 6.72363 28.1966 6.4988C27.8586 6.27397 27.4616 6.1544 27.0558 6.15521C26.5117 6.1563 25.9903 6.37344 25.6062 6.75888C25.2222 7.14433 25.007 7.66652 25.0079 8.21063ZM9.16985 17.367C9.17943 22.2166 13.1179 26.139 17.9664 26.1297C22.815 26.1205 26.7401 22.1824 26.7309 17.3328C26.7216 12.4832 22.7821 8.55981 17.9329 8.56939C13.0837 8.57896 9.16062 12.5181 9.16985 17.367ZM12.2499 17.3608C12.2477 16.2335 12.5798 15.1307 13.2043 14.1921C13.8288 13.2535 14.7176 12.5212 15.7583 12.0877C16.799 11.6542 17.9448 11.539 19.051 11.7568C20.1571 11.9745 21.1739 12.5154 21.9726 13.311C22.7714 14.1066 23.3163 15.1212 23.5384 16.2265C23.7605 17.3317 23.6499 18.4781 23.2205 19.5205C22.7912 20.5629 22.0623 21.4546 21.1262 22.0828C20.1901 22.7109 19.0887 23.0474 17.9613 23.0497C17.2127 23.0512 16.4712 22.9053 15.779 22.6203C15.0868 22.3352 14.4576 21.9166 13.9272 21.3883C13.3968 20.8601 12.9757 20.2325 12.6879 19.5414C12.4001 18.8504 12.2513 18.1094 12.2499 17.3608Z" fill="#851d62ff"/>
</svg>
