<svg width="37" height="33" viewBox="0 0 37 33" fill="none" xmlns="http://www.w3.org/2000/svg">
<path d="M10.0399 0C15.5708 4.12206 30.7688 5.65617 35.8229 6.05637C35.9913 6.06062 36.1555 6.11666 36.2973 6.21836C36.4392 6.32006 36.5533 6.4635 36.6271 6.63295C36.701 6.80241 36.7318 6.99133 36.716 7.17904C36.7003 7.36676 36.6388 7.54602 36.5381 7.69719C34.2495 10.3652 26.7756 22.1844 26.4776 28.1074C26.4469 28.7022 26.2443 29.2698 25.9003 29.7245C25.5563 30.1793 25.0896 30.4966 24.5704 30.6286C9.88496 34.2171 3.18594 32.2695 0.432419 28.0273C-2.45222 23.5851 10.0399 0 10.0399 0Z" fill="#407BFF"/>
</svg>
